<svg width="64" height="64" viewBox="0 0 64 64" fill="none" xmlns="http://www.w3.org/2000/svg">
  <defs>
    <linearGradient id="zamaiFavBg" x1="0" y1="0" x2="64" y2="64" gradientUnits="userSpaceOnUse">
      <stop stop-color="#0B1020"/>
      <stop offset="1" stop-color="#0D1530"/>
    </linearGradient>
  </defs>
  <!-- Background -->
  <rect width="64" height="64" rx="14" fill="url(#zamaiFavBg)"/>
  <!-- Snowflake / circuit mark scaled to 64×64 (scale ≈ 0.166 from 512 canvas) -->
  <g transform="translate(32,32) scale(0.166)">
    <!-- Arm 0° -->
    <line x1="0" y1="-22" x2="0" y2="-112" stroke="#1447B8" stroke-width="14" stroke-linecap="round"/>
    <line x1="0" y1="-68" x2="-27" y2="-83" stroke="#3B82F6" stroke-width="9" stroke-linecap="round"/>
    <line x1="0" y1="-68" x2="27" y2="-83" stroke="#3B82F6" stroke-width="9" stroke-linecap="round"/>
    <circle cx="0" cy="-112" r="15" fill="#1447B8"/>
    <!-- Arm 60° -->
    <g transform="rotate(60)">
      <line x1="0" y1="-22" x2="0" y2="-112" stroke="#1447B8" stroke-width="14" stroke-linecap="round"/>
      <line x1="0" y1="-68" x2="-27" y2="-83" stroke="#3B82F6" stroke-width="9" stroke-linecap="round"/>
      <line x1="0" y1="-68" x2="27" y2="-83" stroke="#3B82F6" stroke-width="9" stroke-linecap="round"/>
      <circle cx="0" cy="-112" r="15" fill="#1447B8"/>
    </g>
    <!-- Arm 120° -->
    <g transform="rotate(120)">
      <line x1="0" y1="-22" x2="0" y2="-112" stroke="#1447B8" stroke-width="14" stroke-linecap="round"/>
      <line x1="0" y1="-68" x2="-27" y2="-83" stroke="#3B82F6" stroke-width="9" stroke-linecap="round"/>
      <line x1="0" y1="-68" x2="27" y2="-83" stroke="#3B82F6" stroke-width="9" stroke-linecap="round"/>
      <circle cx="0" cy="-112" r="15" fill="#1447B8"/>
    </g>
    <!-- Arm 180° -->
    <g transform="rotate(180)">
      <line x1="0" y1="-22" x2="0" y2="-112" stroke="#1447B8" stroke-width="14" stroke-linecap="round"/>
      <line x1="0" y1="-68" x2="-27" y2="-83" stroke="#3B82F6" stroke-width="9" stroke-linecap="round"/>
      <line x1="0" y1="-68" x2="27" y2="-83" stroke="#3B82F6" stroke-width="9" stroke-linecap="round"/>
      <circle cx="0" cy="-112" r="15" fill="#1447B8"/>
    </g>
    <!-- Arm 240° -->
    <g transform="rotate(240)">
      <line x1="0" y1="-22" x2="0" y2="-112" stroke="#1447B8" stroke-width="14" stroke-linecap="round"/>
      <line x1="0" y1="-68" x2="-27" y2="-83" stroke="#3B82F6" stroke-width="9" stroke-linecap="round"/>
      <line x1="0" y1="-68" x2="27" y2="-83" stroke="#3B82F6" stroke-width="9" stroke-linecap="round"/>
      <circle cx="0" cy="-112" r="15" fill="#1447B8"/>
    </g>
    <!-- Arm 300° -->
    <g transform="rotate(300)">
      <line x1="0" y1="-22" x2="0" y2="-112" stroke="#1447B8" stroke-width="14" stroke-linecap="round"/>
      <line x1="0" y1="-68" x2="-27" y2="-83" stroke="#3B82F6" stroke-width="9" stroke-linecap="round"/>
      <line x1="0" y1="-68" x2="27" y2="-83" stroke="#3B82F6" stroke-width="9" stroke-linecap="round"/>
      <circle cx="0" cy="-112" r="15" fill="#1447B8"/>
    </g>
    <!-- Center hub -->
    <circle cx="0" cy="0" r="26" fill="#0D2F8F"/>
    <circle cx="0" cy="0" r="17" fill="#1447B8"/>
    <circle cx="0" cy="0" r="9" fill="#3B82F6"/>
  </g>
</svg>
