<svg width="360" height="80" viewBox="0 0 360 80" fill="none" xmlns="http://www.w3.org/2000/svg">
  <!-- Logo mark symbol (snowflake circuit, no background) at 80x80 -->
  <g transform="translate(40,40) scale(0.1328125)">
    <!-- Arms -->
    <line x1="0" y1="-22" x2="0" y2="-112" stroke="#1447B8" stroke-width="11" stroke-linecap="round"/>
    <line x1="0" y1="-68" x2="-27" y2="-83" stroke="#3B82F6" stroke-width="7" stroke-linecap="round"/>
    <line x1="0" y1="-68" x2="27" y2="-83" stroke="#3B82F6" stroke-width="7" stroke-linecap="round"/>
    <circle cx="0" cy="-112" r="13" fill="#1447B8"/>
    <circle cx="-27" cy="-83" r="8" fill="#3B82F6"/>
    <circle cx="27" cy="-83" r="8" fill="#3B82F6"/>
    <g transform="rotate(60)">
      <line x1="0" y1="-22" x2="0" y2="-112" stroke="#1447B8" stroke-width="11" stroke-linecap="round"/>
      <line x1="0" y1="-68" x2="-27" y2="-83" stroke="#3B82F6" stroke-width="7" stroke-linecap="round"/>
      <line x1="0" y1="-68" x2="27" y2="-83" stroke="#3B82F6" stroke-width="7" stroke-linecap="round"/>
      <circle cx="0" cy="-112" r="13" fill="#1447B8"/>
      <circle cx="-27" cy="-83" r="8" fill="#3B82F6"/>
      <circle cx="27" cy="-83" r="8" fill="#3B82F6"/>
    </g>
    <g transform="rotate(120)">
      <line x1="0" y1="-22" x2="0" y2="-112" stroke="#1447B8" stroke-width="11" stroke-linecap="round"/>
      <line x1="0" y1="-68" x2="-27" y2="-83" stroke="#3B82F6" stroke-width="7" stroke-linecap="round"/>
      <line x1="0" y1="-68" x2="27" y2="-83" stroke="#3B82F6" stroke-width="7" stroke-linecap="round"/>
      <circle cx="0" cy="-112" r="13" fill="#1447B8"/>
      <circle cx="-27" cy="-83" r="8" fill="#3B82F6"/>
      <circle cx="27" cy="-83" r="8" fill="#3B82F6"/>
    </g>
    <g transform="rotate(180)">
      <line x1="0" y1="-22" x2="0" y2="-112" stroke="#1447B8" stroke-width="11" stroke-linecap="round"/>
      <line x1="0" y1="-68" x2="-27" y2="-83" stroke="#3B82F6" stroke-width="7" stroke-linecap="round"/>
      <line x1="0" y1="-68" x2="27" y2="-83" stroke="#3B82F6" stroke-width="7" stroke-linecap="round"/>
      <circle cx="0" cy="-112" r="13" fill="#1447B8"/>
      <circle cx="-27" cy="-83" r="8" fill="#3B82F6"/>
      <circle cx="27" cy="-83" r="8" fill="#3B82F6"/>
    </g>
    <g transform="rotate(240)">
      <line x1="0" y1="-22" x2="0" y2="-112" stroke="#1447B8" stroke-width="11" stroke-linecap="round"/>
      <line x1="0" y1="-68" x2="-27" y2="-83" stroke="#3B82F6" stroke-width="7" stroke-linecap="round"/>
      <line x1="0" y1="-68" x2="27" y2="-83" stroke="#3B82F6" stroke-width="7" stroke-linecap="round"/>
      <circle cx="0" cy="-112" r="13" fill="#1447B8"/>
      <circle cx="-27" cy="-83" r="8" fill="#3B82F6"/>
      <circle cx="27" cy="-83" r="8" fill="#3B82F6"/>
    </g>
    <g transform="rotate(300)">
      <line x1="0" y1="-22" x2="0" y2="-112" stroke="#1447B8" stroke-width="11" stroke-linecap="round"/>
      <line x1="0" y1="-68" x2="-27" y2="-83" stroke="#3B82F6" stroke-width="7" stroke-linecap="round"/>
      <line x1="0" y1="-68" x2="27" y2="-83" stroke="#3B82F6" stroke-width="7" stroke-linecap="round"/>
      <circle cx="0" cy="-112" r="13" fill="#1447B8"/>
      <circle cx="-27" cy="-83" r="8" fill="#3B82F6"/>
      <circle cx="27" cy="-83" r="8" fill="#3B82F6"/>
    </g>
    <!-- Center hub -->
    <circle cx="0" cy="0" r="26" fill="#0D2F8F"/>
    <circle cx="0" cy="0" r="18" fill="#1447B8"/>
    <circle cx="0" cy="0" r="10" fill="#3B82F6"/>
  </g>

  <!-- Wordmark: Zam in primary blue, AI in cool gray -->
  <text
    x="92" y="55"
    font-family="Inter, -apple-system, BlinkMacSystemFont, 'Segoe UI', sans-serif"
    font-size="44"
    font-weight="800"
    letter-spacing="-1.5"
    fill="#1447B8"
  >Zam</text>
  <text
    x="218" y="55"
    font-family="Inter, -apple-system, BlinkMacSystemFont, 'Segoe UI', sans-serif"
    font-size="44"
    font-weight="800"
    letter-spacing="-1.5"
    fill="#8A8F98"
  >AI</text>
</svg>
